# This file uses centimeters as units for non-parametric coordinates.

mtllib base.mtl
g default
v -8.500000 -0.500000 5.500000
v -3.500000 -0.500000 5.500000
v -8.500000 0.500000 5.500000
v -3.500000 0.500000 5.500000
v -8.500000 0.500000 4.500000
v -3.500000 0.500000 4.500000
v -8.500000 -0.500000 4.500000
v -3.500000 -0.500000 4.500000
vt 0.375000 0.000000
vt 0.625000 0.000000
vt 0.375000 0.250000
vt 0.625000 0.250000
vt 0.375000 0.500000
vt 0.625000 0.500000
vt 0.375000 0.750000
vt 0.625000 0.750000
vt 0.375000 1.000000
vt 0.625000 1.000000
vt 0.875000 0.000000
vt 0.875000 0.250000
vt 0.125000 0.000000
vt 0.125000 0.250000
vn 0.000000 0.000000 1.000000
vn 0.000000 0.000000 1.000000
vn 0.000000 0.000000 1.000000
vn 0.000000 0.000000 1.000000
vn 0.000000 1.000000 0.000000
vn 0.000000 1.000000 0.000000
vn 0.000000 1.000000 0.000000
vn 0.000000 1.000000 0.000000
vn 0.000000 0.000000 -1.000000
vn 0.000000 0.000000 -1.000000
vn 0.000000 0.000000 -1.000000
vn 0.000000 0.000000 -1.000000
vn 0.000000 -1.000000 0.000000
vn 0.000000 -1.000000 0.000000
vn 0.000000 -1.000000 0.000000
vn 0.000000 -1.000000 0.000000
vn 1.000000 0.000000 0.000000
vn 1.000000 0.000000 0.000000
vn 1.000000 0.000000 0.000000
vn 1.000000 0.000000 0.000000
vn -1.000000 0.000000 0.000000
vn -1.000000 0.000000 0.000000
vn -1.000000 0.000000 0.000000
vn -1.000000 0.000000 0.000000
s off
g pCube1
usemtl initialShadingGroup
f 1/1/1 2/2/2 4/4/3 3/3/4
f 3/3/5 4/4/6 6/6/7 5/5/8
f 5/5/9 6/6/10 8/8/11 7/7/12
f 7/7/13 8/8/14 2/10/15 1/9/16
f 2/2/17 8/11/18 6/12/19 4/4/20
f 7/13/21 1/1/22 3/3/23 5/14/24
g default
v -8.500000 -0.500000 -4.500000
v -3.500000 -0.500000 -4.500000
v -8.500000 0.500000 -4.500000
v -3.500000 0.500000 -4.500000
v -8.500000 0.500000 -5.500000
v -3.500000 0.500000 -5.500000
v -8.500000 -0.500000 -5.500000
v -3.500000 -0.500000 -5.500000
vt 0.375000 0.000000
vt 0.625000 0.000000
vt 0.375000 0.250000
vt 0.625000 0.250000
vt 0.375000 0.500000
vt 0.625000 0.500000
vt 0.375000 0.750000
vt 0.625000 0.750000
vt 0.375000 1.000000
vt 0.625000 1.000000
vt 0.875000 0.000000
vt 0.875000 0.250000
vt 0.125000 0.000000
vt 0.125000 0.250000
vn 0.000000 0.000000 1.000000
vn 0.000000 0.000000 1.000000
vn 0.000000 0.000000 1.000000
vn 0.000000 0.000000 1.000000
vn 0.000000 1.000000 0.000000
vn 0.000000 1.000000 0.000000
vn 0.000000 1.000000 0.000000
vn 0.000000 1.000000 0.000000
vn 0.000000 0.000000 -1.000000
vn 0.000000 0.000000 -1.000000
vn 0.000000 0.000000 -1.000000
vn 0.000000 0.000000 -1.000000
vn 0.000000 -1.000000 0.000000
vn 0.000000 -1.000000 0.000000
vn 0.000000 -1.000000 0.000000
vn 0.000000 -1.000000 0.000000
vn 1.000000 0.000000 0.000000
vn 1.000000 0.000000 0.000000
vn 1.000000 0.000000 0.000000
vn 1.000000 0.000000 0.000000
vn -1.000000 0.000000 0.000000
vn -1.000000 0.000000 0.000000
vn -1.000000 0.000000 0.000000
vn -1.000000 0.000000 0.000000
s off
g pCube2
usemtl initialShadingGroup
f 9/15/25 10/16/26 12/18/27 11/17/28
f 11/17/29 12/18/30 14/20/31 13/19/32
f 13/19/33 14/20/34 16/22/35 15/21/36
f 15/21/37 16/22/38 10/24/39 9/23/40
f 10/16/41 16/25/42 14/26/43 12/18/44
f 15/27/45 9/15/46 11/17/47 13/28/48
g default
v -0.534007 -0.500000 5.500000
v 4.465993 -0.500000 5.500000
v -0.534007 0.500000 5.500000
v 4.465993 0.500000 5.500000
v -0.534007 0.500000 4.500000
v 4.465993 0.500000 4.500000
v -0.534007 -0.500000 4.500000
v 4.465993 -0.500000 4.500000
vt 0.375000 0.000000
vt 0.625000 0.000000
vt 0.375000 0.250000
vt 0.625000 0.250000
vt 0.375000 0.500000
vt 0.625000 0.500000
vt 0.375000 0.750000
vt 0.625000 0.750000
vt 0.375000 1.000000
vt 0.625000 1.000000
vt 0.875000 0.000000
vt 0.875000 0.250000
vt 0.125000 0.000000
vt 0.125000 0.250000
vn 0.000000 0.000000 1.000000
vn 0.000000 0.000000 1.000000
vn 0.000000 0.000000 1.000000
vn 0.000000 0.000000 1.000000
vn 0.000000 1.000000 0.000000
vn 0.000000 1.000000 0.000000
vn 0.000000 1.000000 0.000000
vn 0.000000 1.000000 0.000000
vn 0.000000 0.000000 -1.000000
vn 0.000000 0.000000 -1.000000
vn 0.000000 0.000000 -1.000000
vn 0.000000 0.000000 -1.000000
vn 0.000000 -1.000000 0.000000
vn 0.000000 -1.000000 0.000000
vn 0.000000 -1.000000 0.000000
vn 0.000000 -1.000000 0.000000
vn 1.000000 0.000000 0.000000
vn 1.000000 0.000000 0.000000
vn 1.000000 0.000000 0.000000
vn 1.000000 0.000000 0.000000
vn -1.000000 0.000000 0.000000
vn -1.000000 0.000000 0.000000
vn -1.000000 0.000000 0.000000
vn -1.000000 0.000000 0.000000
s off
g pCube3
usemtl initialShadingGroup
f 17/29/49 18/30/50 20/32/51 19/31/52
f 19/31/53 20/32/54 22/34/55 21/33/56
f 21/33/57 22/34/58 24/36/59 23/35/60
f 23/35/61 24/36/62 18/38/63 17/37/64
f 18/30/65 24/39/66 22/40/67 20/32/68
f 23/41/69 17/29/70 19/31/71 21/42/72
g default
v -0.534000 -0.500000 -4.500000
v 4.466000 -0.500000 -4.500000
v -0.534000 0.500000 -4.500000
v 4.466000 0.500000 -4.500000
v -0.534000 0.500000 -5.500000
v 4.466000 0.500000 -5.500000
v -0.534000 -0.500000 -5.500000
v 4.466000 -0.500000 -5.500000
vt 0.375000 0.000000
vt 0.625000 0.000000
vt 0.375000 0.250000
vt 0.625000 0.250000
vt 0.375000 0.500000
vt 0.625000 0.500000
vt 0.375000 0.750000
vt 0.625000 0.750000
vt 0.375000 1.000000
vt 0.625000 1.000000
vt 0.875000 0.000000
vt 0.875000 0.250000
vt 0.125000 0.000000
vt 0.125000 0.250000
vn 0.000000 0.000000 1.000000
vn 0.000000 0.000000 1.000000
vn 0.000000 0.000000 1.000000
vn 0.000000 0.000000 1.000000
vn 0.000000 1.000000 0.000000
vn 0.000000 1.000000 0.000000
vn 0.000000 1.000000 0.000000
vn 0.000000 1.000000 0.000000
vn 0.000000 0.000000 -1.000000
vn 0.000000 0.000000 -1.000000
vn 0.000000 0.000000 -1.000000
vn 0.000000 0.000000 -1.000000
vn 0.000000 -1.000000 0.000000
vn 0.000000 -1.000000 0.000000
vn 0.000000 -1.000000 0.000000
vn 0.000000 -1.000000 0.000000
vn 1.000000 0.000000 0.000000
vn 1.000000 0.000000 0.000000
vn 1.000000 0.000000 0.000000
vn 1.000000 0.000000 0.000000
vn -1.000000 0.000000 0.000000
vn -1.000000 0.000000 0.000000
vn -1.000000 0.000000 0.000000
vn -1.000000 0.000000 0.000000
s off
g pCube4
usemtl initialShadingGroup
f 25/43/73 26/44/74 28/46/75 27/45/76
f 27/45/77 28/46/78 30/48/79 29/47/80
f 29/47/81 30/48/82 32/50/83 31/49/84
f 31/49/85 32/50/86 26/52/87 25/51/88
f 26/44/89 32/53/90 30/54/91 28/46/92
f 31/55/93 25/43/94 27/45/95 29/56/96
g default
v -8.502762 -0.500000 4.503529
v -7.502762 -0.500000 4.503529
v -8.502762 0.500000 4.503529
v -7.502762 0.500000 4.503529
v -8.502762 0.500000 1.503529
v -7.502762 0.500000 1.503529
v -8.502762 -0.500000 1.503529
v -7.502762 -0.500000 1.503529
vt 0.375000 0.000000
vt 0.625000 0.000000
vt 0.375000 0.250000
vt 0.625000 0.250000
vt 0.375000 0.500000
vt 0.625000 0.500000
vt 0.375000 0.750000
vt 0.625000 0.750000
vt 0.375000 1.000000
vt 0.625000 1.000000
vt 0.875000 0.000000
vt 0.875000 0.250000
vt 0.125000 0.000000
vt 0.125000 0.250000
vn 0.000000 1.000000 0.000000
vn 0.000000 1.000000 0.000000
vn 0.000000 1.000000 0.000000
vn 0.000000 1.000000 0.000000
vn 0.000000 0.000000 -1.000000
vn 0.000000 0.000000 -1.000000
vn 0.000000 0.000000 -1.000000
vn 0.000000 0.000000 -1.000000
vn 0.000000 -1.000000 0.000000
vn 0.000000 -1.000000 0.000000
vn 0.000000 -1.000000 0.000000
vn 0.000000 -1.000000 0.000000
vn 1.000000 0.000000 0.000000
vn 1.000000 0.000000 0.000000
vn 1.000000 0.000000 0.000000
vn 1.000000 0.000000 0.000000
vn -1.000000 0.000000 0.000000
vn -1.000000 0.000000 0.000000
vn -1.000000 0.000000 0.000000
vn -1.000000 0.000000 0.000000
s off
g pCube5
usemtl initialShadingGroup
f 35/59/97 36/60/98 38/62/99 37/61/100
f 37/61/101 38/62/102 40/64/103 39/63/104
f 39/63/105 40/64/106 34/66/107 33/65/108
f 34/58/109 40/67/110 38/68/111 36/60/112
f 39/69/113 33/57/114 35/59/115 37/70/116
g default
v -8.502762 0.500000 -4.510171
v -7.502762 0.500000 -4.510171
v -8.502762 -0.500000 -4.510171
v -7.502762 -0.500000 -4.510171
v -8.502762 -0.500000 -1.510171
v -7.502762 -0.500000 -1.510171
v -8.502762 0.500000 -1.510171
v -7.502762 0.500000 -1.510171
vt 0.375000 0.000000
vt 0.625000 0.000000
vt 0.375000 0.250000
vt 0.625000 0.250000
vt 0.375000 0.500000
vt 0.625000 0.500000
vt 0.375000 0.750000
vt 0.625000 0.750000
vt 0.375000 1.000000
vt 0.625000 1.000000
vt 0.875000 0.000000
vt 0.875000 0.250000
vt 0.125000 0.000000
vt 0.125000 0.250000
vn 0.000000 -1.000000 0.000000
vn 0.000000 -1.000000 0.000000
vn 0.000000 -1.000000 0.000000
vn 0.000000 -1.000000 0.000000
vn 0.000000 0.000000 1.000000
vn 0.000000 0.000000 1.000000
vn 0.000000 0.000000 1.000000
vn 0.000000 0.000000 1.000000
vn 0.000000 1.000000 -0.000000
vn 0.000000 1.000000 -0.000000
vn 0.000000 1.000000 -0.000000
vn 0.000000 1.000000 -0.000000
vn 1.000000 0.000000 0.000000
vn 1.000000 0.000000 0.000000
vn 1.000000 0.000000 0.000000
vn 1.000000 0.000000 0.000000
vn -1.000000 -0.000000 0.000000
vn -1.000000 -0.000000 0.000000
vn -1.000000 -0.000000 0.000000
vn -1.000000 -0.000000 0.000000
s off
g pCube6
usemtl initialShadingGroup
f 43/73/117 44/74/118 46/76/119 45/75/120
f 45/75/121 46/76/122 48/78/123 47/77/124
f 47/77/125 48/78/126 42/80/127 41/79/128
f 42/72/129 48/81/130 46/82/131 44/74/132
f 47/83/133 41/71/134 43/73/135 45/84/136
g default
v 3.465616 -0.500000 4.503529
v 4.465616 -0.500000 4.503529
v 3.465616 0.500000 4.503529
v 4.465616 0.500000 4.503529
v 3.465616 0.500000 1.503529
v 4.465616 0.500000 1.503529
v 3.465616 -0.500000 1.503529
v 4.465616 -0.500000 1.503529
vt 0.375000 0.000000
vt 0.625000 0.000000
vt 0.375000 0.250000
vt 0.625000 0.250000
vt 0.375000 0.500000
vt 0.625000 0.500000
vt 0.375000 0.750000
vt 0.625000 0.750000
vt 0.375000 1.000000
vt 0.625000 1.000000
vt 0.875000 0.000000
vt 0.875000 0.250000
vt 0.125000 0.000000
vt 0.125000 0.250000
vn 0.000000 1.000000 0.000000
vn 0.000000 1.000000 0.000000
vn 0.000000 1.000000 0.000000
vn 0.000000 1.000000 0.000000
vn 0.000000 0.000000 -1.000000
vn 0.000000 0.000000 -1.000000
vn 0.000000 0.000000 -1.000000
vn 0.000000 0.000000 -1.000000
vn 0.000000 -1.000000 0.000000
vn 0.000000 -1.000000 0.000000
vn 0.000000 -1.000000 0.000000
vn 0.000000 -1.000000 0.000000
vn 1.000000 0.000000 0.000000
vn 1.000000 0.000000 0.000000
vn 1.000000 0.000000 0.000000
vn 1.000000 0.000000 0.000000
vn -1.000000 0.000000 0.000000
vn -1.000000 0.000000 0.000000
vn -1.000000 0.000000 0.000000
vn -1.000000 0.000000 0.000000
s off
g pCube7
usemtl initialShadingGroup
f 51/87/137 52/88/138 54/90/139 53/89/140
f 53/89/141 54/90/142 56/92/143 55/91/144
f 55/91/145 56/92/146 50/94/147 49/93/148
f 50/86/149 56/95/150 54/96/151 52/88/152
f 55/97/153 49/85/154 51/87/155 53/98/156
g default
v 3.450260 0.500000 -4.510171
v 4.450260 0.500000 -4.510171
v 3.450260 -0.500000 -4.510171
v 4.450260 -0.500000 -4.510171
v 3.450260 -0.500000 -1.510171
v 4.450260 -0.500000 -1.510171
v 3.450260 0.500000 -1.510171
v 4.450260 0.500000 -1.510171
vt 0.375000 0.000000
vt 0.625000 0.000000
vt 0.375000 0.250000
vt 0.625000 0.250000
vt 0.375000 0.500000
vt 0.625000 0.500000
vt 0.375000 0.750000
vt 0.625000 0.750000
vt 0.375000 1.000000
vt 0.625000 1.000000
vt 0.875000 0.000000
vt 0.875000 0.250000
vt 0.125000 0.000000
vt 0.125000 0.250000
vn 0.000000 -1.000000 0.000000
vn 0.000000 -1.000000 0.000000
vn 0.000000 -1.000000 0.000000
vn 0.000000 -1.000000 0.000000
vn 0.000000 0.000000 1.000000
vn 0.000000 0.000000 1.000000
vn 0.000000 0.000000 1.000000
vn 0.000000 0.000000 1.000000
vn 0.000000 1.000000 -0.000000
vn 0.000000 1.000000 -0.000000
vn 0.000000 1.000000 -0.000000
vn 0.000000 1.000000 -0.000000
vn 1.000000 -0.000000 0.000000
vn 1.000000 -0.000000 0.000000
vn 1.000000 -0.000000 0.000000
vn 1.000000 -0.000000 0.000000
vn -1.000000 0.000000 0.000000
vn -1.000000 0.000000 0.000000
vn -1.000000 0.000000 0.000000
vn -1.000000 0.000000 0.000000
s off
g pCube8
usemtl initialShadingGroup
f 59/101/157 60/102/158 62/104/159 61/103/160
f 61/103/161 62/104/162 64/106/163 63/105/164
f 63/105/165 64/106/166 58/108/167 57/107/168
f 58/100/169 64/109/170 62/110/171 60/102/172
f 63/111/173 57/99/174 59/101/175 61/112/176
g default
v 4.489540 1.182254 5.498126
v 1.891900 1.182254 5.498126
v -0.705741 1.182254 5.498126
v -3.303381 1.182254 5.498126
v -5.901021 1.182254 5.498126
v -8.498661 1.182254 5.498126
v 4.489540 1.182254 3.298876
v 1.891900 1.182254 3.298876
v -0.705741 1.182254 3.298876
v -3.303381 1.182254 3.298876
v -5.901021 1.182254 3.298876
v -8.498661 1.182254 3.298876
v 4.489540 1.182254 1.099625
v 1.891900 1.182254 1.099625
v -0.705741 1.182254 1.099625
v -3.303381 1.182254 1.099625
v -5.901021 1.182254 1.099625
v -8.498661 1.182254 1.099625
v 4.489540 1.182254 -1.099626
v 1.891900 1.182254 -1.099626
v -0.705741 1.182254 -1.099626
v -3.303381 1.182254 -1.099626
v -5.901021 1.182254 -1.099626
v -8.498661 1.182254 -1.099626
v 4.489540 1.182254 -3.298876
v 1.891900 1.182254 -3.298876
v -0.705741 1.182254 -3.298876
v -3.303381 1.182254 -3.298876
v -5.901021 1.182254 -3.298876
v -8.498661 1.182254 -3.298876
v 4.489540 1.182254 -5.498126
v 1.891900 1.182254 -5.498126
v -0.705741 1.182254 -5.498126
v -3.303381 1.182254 -5.498126
v -5.901021 1.182254 -5.498126
v -8.498661 1.182254 -5.498126
v 4.489540 0.500298 5.498126
v 1.891900 0.500298 5.498126
v 1.891900 0.500298 3.298876
v 4.489540 0.500298 3.298876
v -0.705741 0.500298 5.498126
v -0.705741 0.500298 3.298876
v -3.303381 0.500298 5.498126
v -3.303381 0.500298 3.298876
v -5.901021 0.500298 5.498126
v -5.901021 0.500298 3.298876
v -8.498661 0.500298 5.498126
v -8.498661 0.500298 3.298876
v 1.891900 0.500298 1.099625
v 4.489540 0.500298 1.099625
v -0.705741 0.500298 1.099625
v -3.303381 0.500298 1.099625
v -5.901021 0.500298 1.099625
v -8.498661 0.500298 1.099625
v 1.891900 0.500298 -1.099626
v 4.489540 0.500298 -1.099626
v -0.705741 0.500298 -1.099626
v -3.303381 0.500298 -1.099626
v -5.901021 0.500298 -1.099626
v -8.498661 0.500298 -1.099626
v 1.891900 0.500298 -3.298876
v 4.489540 0.500298 -3.298876
v -0.705741 0.500298 -3.298876
v -3.303381 0.500298 -3.298876
v -5.901021 0.500298 -3.298876
v -8.498661 0.500298 -3.298876
v 1.891900 0.500298 -5.498126
v 4.489540 0.500298 -5.498126
v -0.705741 0.500298 -5.498126
v -3.303381 0.500298 -5.498126
v -5.901021 0.500298 -5.498126
v -8.498661 0.500298 -5.498126
vt 0.000000 0.000000
vt 0.200000 0.000000
vt 0.400000 0.000000
vt 0.600000 0.000000
vt 0.800000 0.000000
vt 1.000000 0.000000
vt 0.000000 0.200000
vt 0.200000 0.200000
vt 0.400000 0.200000
vt 0.600000 0.200000
vt 0.800000 0.200000
vt 1.000000 0.200000
vt 0.000000 0.400000
vt 0.200000 0.400000
vt 0.400000 0.400000
vt 0.600000 0.400000
vt 0.800000 0.400000
vt 1.000000 0.400000
vt 0.000000 0.600000
vt 0.200000 0.600000
vt 0.400000 0.600000
vt 0.600000 0.600000
vt 0.800000 0.600000
vt 1.000000 0.600000
vt 0.000000 0.800000
vt 0.200000 0.800000
vt 0.400000 0.800000
vt 0.600000 0.800000
vt 0.800000 0.800000
vt 1.000000 0.800000
vt 0.000000 1.000000
vt 0.200000 1.000000
vt 0.400000 1.000000
vt 0.600000 1.000000
vt 0.800000 1.000000
vt 1.000000 1.000000
vt 0.000000 0.000000
vt 0.200000 0.000000
vt 0.200000 0.200000
vt 0.000000 0.200000
vt 0.400000 0.000000
vt 0.400000 0.200000
vt 0.600000 0.000000
vt 0.600000 0.200000
vt 0.800000 0.000000
vt 0.800000 0.200000
vt 1.000000 0.000000
vt 1.000000 0.200000
vt 0.200000 0.400000
vt 0.000000 0.400000
vt 0.400000 0.400000
vt 0.600000 0.400000
vt 0.800000 0.400000
vt 1.000000 0.400000
vt 0.200000 0.600000
vt 0.000000 0.600000
vt 0.400000 0.600000
vt 0.600000 0.600000
vt 0.800000 0.600000
vt 1.000000 0.600000
vt 0.200000 0.800000
vt 0.000000 0.800000
vt 0.400000 0.800000
vt 0.600000 0.800000
vt 0.800000 0.800000
vt 1.000000 0.800000
vt 0.200000 1.000000
vt 0.000000 1.000000
vt 0.400000 1.000000
vt 0.600000 1.000000
vt 0.800000 1.000000
vt 1.000000 1.000000
vt 0.000000 0.000000
vt 0.200000 0.000000
vt 0.000000 0.200000
vt 0.400000 0.000000
vt 0.600000 0.000000
vt 0.800000 0.000000
vt 1.000000 0.000000
vt 1.000000 0.200000
vt 0.000000 0.400000
vt 1.000000 0.400000
vt 0.000000 0.600000
vt 1.000000 0.600000
vt 0.000000 0.800000
vt 1.000000 0.800000
vt 0.200000 1.000000
vt 0.000000 1.000000
vt 0.400000 1.000000
vt 0.600000 1.000000
vt 0.800000 1.000000
vt 1.000000 1.000000
vn -0.000000 -1.000000 0.000000
vn -0.000000 -1.000000 0.000000
vn -0.000000 -1.000000 0.000000
vn -0.000000 -1.000000 0.000000
vn -0.000000 -1.000000 0.000000
vn -0.000000 -1.000000 0.000000
vn -0.000000 -1.000000 0.000000
vn -0.000000 -1.000000 0.000000
vn -0.000000 -1.000000 0.000000
vn -0.000000 -1.000000 0.000000
vn -0.000000 -1.000000 0.000000
vn -0.000000 -1.000000 0.000000
vn -0.000000 -1.000000 0.000000
vn -0.000000 -1.000000 0.000000
vn -0.000000 -1.000000 0.000000
vn -0.000000 -1.000000 0.000000
vn -0.000000 -1.000000 0.000000
vn -0.000000 -1.000000 0.000000
vn -0.000000 -1.000000 0.000000
vn -0.000000 -1.000000 0.000000
vn -0.000000 -1.000000 0.000000
vn -0.000000 -1.000000 0.000000
vn -0.000000 -1.000000 0.000000
vn -0.000000 -1.000000 0.000000
vn -0.000000 -1.000000 0.000000
vn -0.000000 -1.000000 0.000000
vn -0.000000 -1.000000 0.000000
vn -0.000000 -1.000000 0.000000
vn -0.000000 -1.000000 0.000000
vn -0.000000 -1.000000 0.000000
vn -0.000000 -1.000000 0.000000
vn -0.000000 -1.000000 0.000000
vn -0.000000 -1.000000 0.000000
vn -0.000000 -1.000000 0.000000
vn -0.000000 -1.000000 0.000000
vn -0.000000 -1.000000 0.000000
vn 0.000000 1.000000 -0.000000
vn 0.000000 1.000000 -0.000000
vn 0.000000 1.000000 -0.000000
vn 0.000000 1.000000 -0.000000
vn 0.000000 1.000000 -0.000000
vn 0.000000 1.000000 -0.000000
vn 0.000000 1.000000 -0.000000
vn 0.000000 1.000000 -0.000000
vn 0.000000 1.000000 -0.000000
vn 0.000000 1.000000 -0.000000
vn 0.000000 1.000000 -0.000000
vn 0.000000 1.000000 -0.000000
vn 0.000000 1.000000 -0.000000
vn 0.000000 1.000000 -0.000000
vn 0.000000 1.000000 -0.000000
vn 0.000000 1.000000 -0.000000
vn 0.000000 1.000000 -0.000000
vn 0.000000 1.000000 -0.000000
vn 0.000000 1.000000 -0.000000
vn 0.000000 1.000000 -0.000000
vn 0.000000 1.000000 -0.000000
vn 0.000000 1.000000 -0.000000
vn 0.000000 1.000000 -0.000000
vn 0.000000 1.000000 -0.000000
vn 0.000000 1.000000 -0.000000
vn 0.000000 1.000000 -0.000000
vn 0.000000 1.000000 -0.000000
vn 0.000000 1.000000 -0.000000
vn 0.000000 1.000000 -0.000000
vn 0.000000 1.000000 -0.000000
vn 0.000000 1.000000 -0.000000
vn 0.000000 1.000000 -0.000000
vn 0.000000 1.000000 -0.000000
vn 0.000000 1.000000 -0.000000
vn 0.000000 1.000000 -0.000000
vn 0.000000 1.000000 -0.000000
vn 0.000000 0.000000 1.000000
vn 0.000000 0.000000 1.000000
vn 0.000000 0.000000 1.000000
vn 0.000000 0.000000 1.000000
vn 1.000000 -0.000000 0.000000
vn 1.000000 -0.000000 0.000000
vn 1.000000 -0.000000 0.000000
vn 1.000000 -0.000000 0.000000
vn 0.000000 0.000000 1.000000
vn 0.000000 0.000000 1.000000
vn 0.000000 0.000000 1.000000
vn 0.000000 0.000000 1.000000
vn 0.000000 0.000000 1.000000
vn 0.000000 0.000000 1.000000
vn 0.000000 0.000000 1.000000
vn 0.000000 0.000000 1.000000
vn -1.000000 0.000000 0.000000
vn -1.000000 0.000000 0.000000
vn -1.000000 0.000000 0.000000
vn -1.000000 0.000000 0.000000
vn 1.000000 -0.000000 0.000000
vn 1.000000 -0.000000 0.000000
vn -1.000000 0.000000 0.000000
vn -1.000000 0.000000 0.000000
vn 1.000000 -0.000000 0.000000
vn 1.000000 -0.000000 0.000000
vn -1.000000 0.000000 0.000000
vn -1.000000 0.000000 0.000000
vn 1.000000 -0.000000 0.000000
vn 1.000000 -0.000000 0.000000
vn -1.000000 0.000000 0.000000
vn -1.000000 0.000000 0.000000
vn -0.000000 0.000000 -1.000000
vn -0.000000 0.000000 -1.000000
vn -0.000000 0.000000 -1.000000
vn -0.000000 0.000000 -1.000000
vn 1.000000 -0.000000 0.000000
vn 1.000000 -0.000000 0.000000
vn -0.000000 0.000000 -1.000000
vn -0.000000 0.000000 -1.000000
vn -0.000000 0.000000 -1.000000
vn -0.000000 0.000000 -1.000000
vn -0.000000 0.000000 -1.000000
vn -0.000000 0.000000 -1.000000
vn -1.000000 0.000000 0.000000
vn -1.000000 0.000000 0.000000
vn -0.000000 0.000000 -1.000000
vn -0.000000 0.000000 -1.000000
s 1
g pPlane1
usemtl initialShadingGroup
f 101/185/177 102/186/178 103/120/179 104/187/180
f 102/186/178 105/188/181 106/121/182 103/120/179
f 105/188/181 107/189/183 108/122/184 106/121/182
f 107/189/183 109/190/185 110/123/186 108/122/184
f 109/190/185 111/191/187 112/192/188 110/123/186
f 104/187/180 103/120/179 113/126/189 114/193/190
f 103/120/179 106/121/182 115/127/191 113/126/189
f 106/121/182 108/122/184 116/128/192 115/127/191
f 108/122/184 110/123/186 117/129/193 116/128/192
f 110/123/186 112/192/188 118/194/194 117/129/193
f 114/193/190 113/126/189 119/132/195 120/195/196
f 113/126/189 115/127/191 121/133/197 119/132/195
f 115/127/191 116/128/192 122/134/198 121/133/197
f 116/128/192 117/129/193 123/135/199 122/134/198
f 117/129/193 118/194/194 124/196/200 123/135/199
f 120/195/196 119/132/195 125/138/201 126/197/202
f 119/132/195 121/133/197 127/139/203 125/138/201
f 121/133/197 122/134/198 128/140/204 127/139/203
f 122/134/198 123/135/199 129/141/205 128/140/204
f 123/135/199 124/196/200 130/198/206 129/141/205
f 126/197/202 125/138/201 131/199/207 132/200/208
f 125/138/201 127/139/203 133/201/209 131/199/207
f 127/139/203 128/140/204 134/202/210 133/201/209
f 128/140/204 129/141/205 135/203/211 134/202/210
f 129/141/205 130/198/206 136/204/212 135/203/211
s 2
f 65/149/213 71/152/214 72/151/215 66/150/216
f 66/150/216 72/151/215 73/154/217 67/153/218
f 67/153/218 73/154/217 74/156/219 68/155/220
f 68/155/220 74/156/219 75/158/221 69/157/222
f 69/157/222 75/158/221 76/160/223 70/159/224
f 71/152/214 77/162/225 78/161/226 72/151/215
f 72/151/215 78/161/226 79/163/227 73/154/217
f 73/154/217 79/163/227 80/164/228 74/156/219
f 74/156/219 80/164/228 81/165/229 75/158/221
f 75/158/221 81/165/229 82/166/230 76/160/223
f 77/162/225 83/168/231 84/167/232 78/161/226
f 78/161/226 84/167/232 85/169/233 79/163/227
f 79/163/227 85/169/233 86/170/234 80/164/228
f 80/164/228 86/170/234 87/171/235 81/165/229
f 81/165/229 87/171/235 88/172/236 82/166/230
f 83/168/231 89/174/237 90/173/238 84/167/232
f 84/167/232 90/173/238 91/175/239 85/169/233
f 85/169/233 91/175/239 92/176/240 86/170/234
f 86/170/234 92/176/240 93/177/241 87/171/235
f 87/171/235 93/177/241 94/178/242 88/172/236
f 89/174/237 95/180/243 96/179/244 90/173/238
f 90/173/238 96/179/244 97/181/245 91/175/239
f 91/175/239 97/181/245 98/182/246 92/176/240
f 92/176/240 98/182/246 99/183/247 93/177/241
f 93/177/241 99/183/247 100/184/248 94/178/242
s 3
f 65/113/249 66/114/250 102/186/251 101/185/252
s 4
f 71/119/253 65/113/254 101/185/255 104/187/256
s 3
f 66/114/250 67/115/257 105/188/258 102/186/251
f 67/115/257 68/116/259 107/189/260 105/188/258
f 68/116/259 69/117/261 109/190/262 107/189/260
f 69/117/261 70/118/263 111/191/264 109/190/262
s 5
f 70/118/265 76/124/266 112/192/267 111/191/268
s 4
f 77/125/269 71/119/253 104/187/256 114/193/270
s 5
f 76/124/266 82/130/271 118/194/272 112/192/267
s 4
f 83/131/273 77/125/269 114/193/270 120/195/274
s 5
f 82/130/271 88/136/275 124/196/276 118/194/272
s 4
f 89/137/277 83/131/273 120/195/274 126/197/278
s 5
f 88/136/275 94/142/279 130/198/280 124/196/276
s 6
f 96/144/281 95/143/282 132/200/283 131/199/284
s 4
f 95/143/285 89/137/277 126/197/278 132/200/286
s 6
f 97/145/287 96/144/281 131/199/284 133/201/288
f 98/146/289 97/145/287 133/201/288 134/202/290
f 99/147/291 98/146/289 134/202/290 135/203/292
s 5
f 94/142/279 100/148/293 136/204/294 130/198/280
s 6
f 100/148/295 99/147/291 135/203/292 136/204/296
