# This file uses centimeters as units for non-parametric coordinates.

mtllib computer.mtl
g default
v -0.929426 0.241845 1.101154
v 0.351300 0.241845 1.101154
v -0.929426 1.241845 1.101154
v 0.351300 1.241845 1.101154
v -0.929426 1.241845 -1.101154
v 0.351300 1.241845 -1.101154
v -0.929426 0.241845 -1.101154
v 0.351300 0.241845 -1.101154
vt 0.588184 0.005527
vt 0.794159 0.005527
vt 0.290189 0.178077
vt 1.001456 0.178077
vt 0.290189 0.591322
vt 1.001456 0.591322
vt 0.727828 0.610996
vt 0.933803 0.623451
vt 0.727828 0.829426
vt 0.933803 0.829426
vt 1.000134 0.005527
vt 1.000134 0.211502
vt 0.382209 0.005527
vt 0.382209 0.019636
vn 0.000000 0.000000 1.000000
vn 0.000000 0.000000 1.000000
vn 0.000000 0.000000 1.000000
vn 0.000000 0.000000 1.000000
vn 0.000000 1.000000 0.000000
vn 0.000000 1.000000 0.000000
vn 0.000000 1.000000 0.000000
vn 0.000000 1.000000 0.000000
vn 0.000000 0.000000 -1.000000
vn 0.000000 0.000000 -1.000000
vn 0.000000 0.000000 -1.000000
vn 0.000000 0.000000 -1.000000
vn 0.000000 -1.000000 0.000000
vn 0.000000 -1.000000 0.000000
vn 0.000000 -1.000000 0.000000
vn 0.000000 -1.000000 0.000000
vn 1.000000 0.000000 0.000000
vn 1.000000 0.000000 0.000000
vn 1.000000 0.000000 0.000000
vn 1.000000 0.000000 0.000000
vn -1.000000 0.000000 0.000000
vn -1.000000 0.000000 0.000000
vn -1.000000 0.000000 0.000000
vn -1.000000 0.000000 0.000000
s off
g pCube2
usemtl lambert4SG
f 1/1/1 2/2/2 4/4/3 3/3/4
f 3/3/5 4/4/6 6/6/7 5/5/8
f 5/5/9 6/6/10 8/8/11 7/7/12
f 7/7/13 8/8/14 2/10/15 1/9/16
f 2/2/17 8/11/18 6/12/19 4/4/20
f 7/13/21 1/1/22 3/3/23 5/14/24
g default
v 0.241633 1.248571 1.093550
v 0.370314 1.248571 1.093550
v 0.241633 3.115758 1.093550
v 0.370314 3.115758 1.093550
v 0.241633 3.115758 -1.093550
v 0.370314 3.115758 -1.093550
v 0.241633 1.248571 -1.093550
v 0.370314 1.248571 -1.093550
vt 0.269753 0.993204
vt 0.188506 0.883449
vt 0.272389 0.608333
vt 0.189644 0.717310
vt 0.268638 0.552310
vt 0.102499 0.551172
vt 0.269776 0.386171
vt 0.103637 0.385033
vt 0.270913 0.220032
vt 0.104775 0.218894
vt 0.022367 0.882311
vt 0.023505 0.716172
vt 0.654624 0.995840
vt 0.657260 0.610969
vn 0.000000 0.000000 1.000000
vn 0.000000 0.000000 1.000000
vn 0.000000 0.000000 1.000000
vn 0.000000 0.000000 1.000000
vn 0.000000 1.000000 0.000000
vn 0.000000 1.000000 0.000000
vn 0.000000 1.000000 0.000000
vn 0.000000 1.000000 0.000000
vn 0.000000 0.000000 -1.000000
vn 0.000000 0.000000 -1.000000
vn 0.000000 0.000000 -1.000000
vn 0.000000 0.000000 -1.000000
vn 0.000000 -1.000000 0.000000
vn 0.000000 -1.000000 0.000000
vn 0.000000 -1.000000 0.000000
vn 0.000000 -1.000000 0.000000
vn 1.000000 0.000000 0.000000
vn 1.000000 0.000000 0.000000
vn 1.000000 0.000000 0.000000
vn 1.000000 0.000000 0.000000
vn -1.000000 0.000000 0.000000
vn -1.000000 0.000000 0.000000
vn -1.000000 0.000000 0.000000
vn -1.000000 0.000000 0.000000
s off
g pCube3
usemtl lambert4SG
f 9/15/25 10/16/26 12/18/27 11/17/28
f 11/17/29 12/18/30 14/20/31 13/19/32
f 13/19/33 14/20/34 16/22/35 15/21/36
f 15/21/37 16/22/38 10/24/39 9/23/40
f 10/16/41 16/25/42 14/26/43 12/18/44
f 15/27/45 9/15/46 11/17/47 13/28/48
