# This file uses centimeters as units for non-parametric coordinates.

mtllib gate_side.mtl
g default
v -4.299408 -0.742086 9.644402
v 2.539969 -0.742086 9.644402
v -3.655545 -0.742086 10.644402
v 1.896106 -0.742086 10.644402
v -3.655545 -0.415012 10.644402
v 1.896106 -0.415012 10.644402
v -4.299408 -0.415012 9.644402
v 2.539969 -0.415012 9.644402
vt 0.141703 0.588482
vt 0.237538 0.588482
vt 0.141703 0.684316
vt 0.237538 0.684316
vt 0.142439 0.780151
vt 0.238274 0.780151
vt 0.142439 0.875986
vt 0.238274 0.875986
vt 0.142439 0.971821
vt 0.238274 0.971821
vt 0.333373 0.588482
vt 0.333373 0.684316
vt 0.045868 0.588482
vt 0.045868 0.684316
vn 0.000000 -1.000000 0.000000
vn 0.000000 -1.000000 0.000000
vn 0.000000 -1.000000 0.000000
vn 0.000000 -1.000000 0.000000
vn 0.000000 1.000000 -0.000000
vn 0.000000 1.000000 -0.000000
vn 0.000000 1.000000 -0.000000
vn 0.000000 1.000000 -0.000000
vn 0.000000 -0.000000 -1.000000
vn 0.000000 -0.000000 -1.000000
vn 0.000000 -0.000000 -1.000000
vn 0.000000 -0.000000 -1.000000
vn 0.840794 0.000000 0.541356
vn 0.840794 0.000000 0.541356
vn 0.840794 0.000000 0.541356
vn 0.840794 0.000000 0.541356
vn -0.840794 0.000000 0.541356
vn -0.840794 0.000000 0.541356
vn -0.840794 0.000000 0.541356
vn -0.840794 0.000000 0.541356
s off
g pCube8
usemtl lambert2SG
f 1/1/1 2/2/2 4/4/3 3/3/4
f 5/5/5 6/6/6 8/8/7 7/7/8
f 7/7/9 8/8/10 2/10/11 1/9/12
f 2/2/13 8/11/14 6/12/15 4/4/16
f 7/13/17 1/1/18 3/3/19 5/14/20
